<svg xmlns="http://www.w3.org/2000/svg" xmlns:svg="http://www.w3.org/2000/svg" xmlns:xlink="http://www.w3.org/1999/xlink" id="svg2424" width="32" height="32" version="1.0"><defs id="defs2426"><linearGradient id="path1082_2_" x1="112.499" x2="112.499" y1="6.137" y2="129.347" gradientTransform="translate(287,-83)" gradientUnits="userSpaceOnUse"><stop id="stop193" offset="0" style="stop-color:#fff;stop-opacity:0"/><stop id="stop195" offset="1" style="stop-color:#fff;stop-opacity:.27450982"/><midPointStop id="midPointStop197" offset="0" style="stop-color:#fff"/><midPointStop id="midPointStop199" offset=".5" style="stop-color:#fff"/><midPointStop id="midPointStop201" offset="1" style="stop-color:#000"/></linearGradient><linearGradient id="linearGradient3388"><stop style="stop-color:#000;stop-opacity:0" id="stop3390" offset="0"/><stop style="stop-color:#000;stop-opacity:.37113401" id="stop3392" offset="1"/></linearGradient><linearGradient id="linearGradient4346"><stop style="stop-color:#00bdec;stop-opacity:1" id="stop4348" offset="0"/><stop style="stop-color:#40bfde;stop-opacity:1" id="stop4350" offset="1"/></linearGradient><linearGradient id="linearGradient4352" x1="400.614" x2="616.486" y1="634.151" y2="666.978" gradientUnits="userSpaceOnUse" xlink:href="#linearGradient4346"/><linearGradient id="linearGradient5323"><stop style="stop-color:#6e6e6e;stop-opacity:1" id="stop5325" offset="0"/><stop style="stop-color:#4d4d4d;stop-opacity:1" id="stop5327" offset="1"/></linearGradient><linearGradient id="linearGradient5329" x1="291.836" x2="650.814" y1="238.082" y2="348.969" gradientUnits="userSpaceOnUse" xlink:href="#linearGradient5323"/><linearGradient id="linearGradient2216" x1="541.335" x2="606.912" y1="104.507" y2="303.14" gradientTransform="matrix(-0.3937741,0,0,0.393752,978.34967,416.9815)" gradientUnits="userSpaceOnUse" xlink:href="#path1082_2_"/><linearGradient id="linearGradient4175" x1="400.614" x2="616.486" y1="634.151" y2="666.978" gradientUnits="userSpaceOnUse" xlink:href="#linearGradient4346"/><linearGradient id="linearGradient4177" x1="291.836" x2="650.814" y1="238.082" y2="348.969" gradientUnits="userSpaceOnUse" xlink:href="#linearGradient5323"/><linearGradient id="linearGradient4179" x1="541.335" x2="606.912" y1="104.507" y2="303.14" gradientTransform="matrix(-0.3937741,0,0,0.393752,978.34967,416.9815)" gradientUnits="userSpaceOnUse" xlink:href="#path1082_2_"/><linearGradient id="linearGradient4178" x1="400.614" x2="616.486" y1="634.151" y2="666.978" gradientUnits="userSpaceOnUse" xlink:href="#linearGradient4346"/><linearGradient id="linearGradient4180" x1="291.836" x2="650.814" y1="238.082" y2="348.969" gradientUnits="userSpaceOnUse" xlink:href="#linearGradient5323"/><linearGradient id="linearGradient4182" x1="541.335" x2="606.912" y1="104.507" y2="303.14" gradientTransform="matrix(-0.3937741,0,0,0.393752,978.34967,416.9815)" gradientUnits="userSpaceOnUse" xlink:href="#path1082_2_"/></defs><metadata id="metadata2429"/><g id="layer1" transform="translate(-309.51781,-259.60123)"><g id="g2424" transform="matrix(1.3473684,0,0,1.3473684,-632.88236,-513.34366)"><g id="g2210" transform="matrix(0.125,0,0,0.125,615.71887,519.21715)"><path style="opacity:.5;fill:#bebebe;fill-opacity:1;fill-rule:evenodd;stroke:none;stroke-width:1;stroke-linecap:round;stroke-linejoin:round;stroke-miterlimit:10;stroke-dasharray:none;stroke-opacity:1" id="path2518-5" d="M 16 0 C 14.575648 3.4921313 13.874892 5.5315986 12.289062 8.9199219 C 13.261376 9.9505728 14.292283 11.394438 16.230469 12.75 C 14.559075 12.634776 12.56221 11.364015 11.5 10.470703 C 9.4704421 14.705691 6.4527056 20.405799 0 32 C 5.0703376 29.072805 9.0009501 27.26729 12.664062 26.578125 C 12.507343 25.90258 12.423624 25.168434 12.429688 24.40625 L 12.433594 24.246094 C 12.514069 20.996846 14.204761 18.498315 16.207031 18.667969 C 18.2093 18.837623 19.767973 21.610127 19.6875 24.859375 C 19.672342 25.471402 19.601188 26.059478 19.480469 26.605469 C 20.527588 26.810387 21.602418 27.117186 22.714844 27.503906 C 22.851836 27.372798 22.997836 27.24113 23.111328 27.109375 C 22.958469 26.467866 22.131057 26.19908 21.730469 25.691406 C 20.938452 24.658507 21.493008 23.2149 21.326172 22.017578 C 21.359051 20.985811 22.680604 21.341489 23.332031 21.359375 C 24.776304 20.867515 26.037158 22.051146 26.765625 23.154297 C 26.914257 23.176727 27.047294 23.14314 27.169922 23.076172 C 19.505866 8.7444787 18.822618 6.6238807 16 0 z" transform="matrix(5.9375001,0,0,5.9375001,669.75014,435.62316)"/><path id="path3761-2-3-5-4-8-9-8-0-9-3" d="m 800.37514,566.24816 16.32812,0 13.35938,12.98828 12.98828,-12.98828 16.69922,0 0,17.4414 -12.98828,12.61718 12.98828,12.6172 0,16.69922 -17.07032,0 -12.61718,-12.6172 -12.6172,12.6172 -17.0703,0 0,-16.69922 12.61718,-12.6172 -12.61718,-12.61718 0,-17.4414 z" style="color:#bebebe;display:inline;overflow:visible;visibility:visible;fill:#bebebe;fill-opacity:1;stroke:none;stroke-width:2;marker:none"/></g></g></g></svg>