<svg xmlns="http://www.w3.org/2000/svg" xmlns:svg="http://www.w3.org/2000/svg" xmlns:xlink="http://www.w3.org/1999/xlink" id="svg2424" width="32" height="32" version="1.0"><defs id="defs2426"><linearGradient id="path1082_2_" x1="112.499" x2="112.499" y1="6.137" y2="129.347" gradientTransform="translate(287,-83)" gradientUnits="userSpaceOnUse"><stop id="stop193" offset="0" style="stop-color:#fff;stop-opacity:0"/><stop id="stop195" offset="1" style="stop-color:#fff;stop-opacity:.27450982"/><midPointStop id="midPointStop197" offset="0" style="stop-color:#fff"/><midPointStop id="midPointStop199" offset=".5" style="stop-color:#fff"/><midPointStop id="midPointStop201" offset="1" style="stop-color:#000"/></linearGradient><linearGradient id="linearGradient3388"><stop style="stop-color:#000;stop-opacity:0" id="stop3390" offset="0"/><stop style="stop-color:#000;stop-opacity:.37113401" id="stop3392" offset="1"/></linearGradient><linearGradient id="linearGradient4346"><stop style="stop-color:#00bdec;stop-opacity:1" id="stop4348" offset="0"/><stop style="stop-color:#40bfde;stop-opacity:1" id="stop4350" offset="1"/></linearGradient><linearGradient id="linearGradient4352" x1="400.614" x2="616.486" y1="634.151" y2="666.978" gradientUnits="userSpaceOnUse" xlink:href="#linearGradient4346"/><linearGradient id="linearGradient5323"><stop style="stop-color:#6e6e6e;stop-opacity:1" id="stop5325" offset="0"/><stop style="stop-color:#4d4d4d;stop-opacity:1" id="stop5327" offset="1"/></linearGradient><linearGradient id="linearGradient5329" x1="291.836" x2="650.814" y1="238.082" y2="348.969" gradientUnits="userSpaceOnUse" xlink:href="#linearGradient5323"/><linearGradient id="linearGradient2216" x1="541.335" x2="606.912" y1="104.507" y2="303.14" gradientTransform="matrix(-0.3937741,0,0,0.393752,978.34967,416.9815)" gradientUnits="userSpaceOnUse" xlink:href="#path1082_2_"/></defs><metadata id="metadata2429"/><g id="layer1" transform="translate(-309.51781,-259.60123)"><g id="g2424" transform="matrix(1.3473684,0,0,1.3473684,-632.88236,-513.34366)"><g id="g2210" transform="matrix(0.125,0,0,0.125,615.71887,519.21715)"><path style="fill:#bebebe;fill-opacity:1;fill-rule:evenodd;stroke:none;stroke-width:1;stroke-linecap:round;stroke-linejoin:round;stroke-miterlimit:10;stroke-dasharray:none;stroke-opacity:1;opacity:1" id="path2518" d="M 764.75015,435.62318 C 756.29306,456.35771 752.13752,468.47084 742.72166,488.58901 C 748.49477,494.7085 754.61058,503.27765 766.11856,511.3263 C 756.19466,510.64216 744.33307,503.09582 738.0262,497.79178 C 725.9757,522.93702 708.06309,556.78261 669.75015,625.62318 C 699.85528,608.24296 723.19329,597.52272 744.94302,593.4308 C 744.0125,589.41975 743.51542,585.06076 743.55142,580.53529 L 743.57461,579.58436 C 744.05243,560.29195 754.09092,545.45692 765.9794,546.46424 C 777.86787,547.47156 787.12249,563.93331 786.64468,583.22572 C 786.55468,586.85963 786.1322,590.35133 785.41543,593.59315 C 806.9311,597.8037 830.04901,608.47618 859.75015,625.62318 C 853.89286,614.83948 848.64665,607.08273 843.65396,597.82475 C 835.78967,591.72939 829.54943,586.24762 810.85855,573.25257 C 822.35934,576.24095 829.13312,577.24831 835.55168,581.10212 C 784.78965,486.59209 782.15758,476.47346 764.75015,435.62318 z"/></g></g></g></svg>